# xmcd CD Database Entry
#
# Track frame offsets:
# 150
# 2017
# 12605
# 29090
# 46775
# 60920
# 77202
# 78905
# 94217
# 111407
# 128452
# 129537
# 148410
# 162847
# 181260
# 197960
# 199675
# 213627
# 231947
# 249255
#
# Disc length: 3355 seconds
#
# Revision: 4
# Processed by: cddbd v1.4b42PL0 Copyright (c) Steve Scherf et al.
# Submitted via: tcd 2.0b
#
DISCID=160d1914
DTITLE=Jock JRay of Liams Volume 5 - ESPN 
DYEAR=1900
DGENRE=
TTITLE0=Can You Feel It!
TTITLE1=Reach Up
TTITLE2=We Like To Party
TTITLE3=Ray of Light
TTITLE4=Miami
TTITLE5=Turn It Up (Remix)  Fire it Up
TTITLE6=We Came To Play
TTITLE7=I'm Gonna Get You
TTITLE8=Nice And Slow (Remix)
TTITLE9=Woof Woof
TTITLE10=Mexican Hat Dance
TTITLE11=Nobody's Supposed To Be Here (Remix)
TTITLE12=Feel It
TTITLE13=Deep To Right Field!
TTITLE14=Too Close (Remix)
TTITLE15=Suavemente (Remix)
TTITLE16=You Ugly
TTITLE17=Burnin' Up
TTITLE18=All I Have To Give (Remix)
TTITLE19=Got To Be Real
EXTD=
EXTT0=
EXTT1=
EXTT2=
EXTT3=
EXTT4=
EXTT5=
EXTT6=
EXTT7=
EXTT8=
EXTT9=
EXTT10=
EXTT11=
EXTT12=
EXTT13=
EXTT14=
EXTT15=
EXTT16=
EXTT17=
EXTT18=
EXTT19=
PLAYORDER=
